<?xml version="1.0" encoding="utf-8"?>
<!-- Generator: Adobe Illustrator 19.1.0, SVG Export Plug-In . SVG Version: 6.00 Build 0)  -->
<svg version="1.1" id="Layer_1" xmlns="http://www.w3.org/2000/svg" xmlns:xlink="http://www.w3.org/1999/xlink" x="0px" y="0px"
	 viewBox="0 0 760.7 431.1" style="enable-background:new 0 0 760.7 431.1;" xml:space="preserve">
<style type="text/css">
	.st0{fill:none;stroke:#ED1C24;stroke-width:0.3873;stroke-linecap:round;stroke-linejoin:round;}
	.st1{fill:none;stroke:#ED1C24;stroke-width:0.6;stroke-linecap:round;stroke-linejoin:round;}
	.st2{fill:none;stroke:#ED1C24;stroke-width:0.3873;}
	.st3{fill:none;stroke:#ED1C24;stroke-width:0.6;stroke-miterlimit:10;}
	.st4{display:none;}
	.st5{display:inline;fill:none;stroke:#ED1C24;stroke-width:0.3873;stroke-linecap:round;stroke-linejoin:round;}
	.st6{display:inline;fill:none;stroke:#ED1C24;stroke-width:0.3873;}
	.st7{display:inline;fill:none;stroke:#ED1C24;stroke-width:0.6;stroke-miterlimit:10;}
	.st8{display:inline;fill:none;stroke:#ED1C24;stroke-width:0.6;stroke-linecap:round;stroke-linejoin:round;}
	.st9{display:inline;fill:none;stroke:#ED1C24;stroke-width:0.6;}
	.st10{display:inline;fill:none;stroke:#ED1C2C;stroke-width:0.3873;}
	.st11{display:inline;}
	.st12{display:inline;fill:none;stroke:#ED1C24;stroke-width:0.3873;stroke-miterlimit:10;}
</style>
<g>
	<path class="st0" d="M314,246.3"/>
	<path class="st0" d="M426.1,146.7"/>
	<path class="st0" d="M422,148.4"/>
	<path class="st0" d="M426.1,146.7"/>
	<path class="st0" d="M422,148.4"/>
	<path class="st0" d="M382.7,146.9"/>
	<path class="st0" d="M446.8,144.9"/>
	<path class="st1" d="M435.8,139.8c-1.5,1.5-3.7,6.6-5.7,6c0.1-2.8,2.9-8.7,6-4.5c0.9,1.2,0.9,2.7,0.4,4c-0.7,1.9-3.1,3.6-4.9,5.6
		c0,1.7,3,0.8,2.4,2.1c-0.8,1.8-2.2,4.7-2.7,6.2c-0.4,1-2.2,4.4-0.4,4.7c1.3,0.2,2.1-2.9,2.5-3.7c1.2-2.2,3.5-8.1,4.8-7.6
		c0.5,0.2,2.1,7.9,2.5,9.6c0.5,2.2,1.5,5.3,3.2,4.8c0.6-2.7-3.3-11.5-2.3-14.4c0.4-1.3,1.9-0.3,3.4,0.4c0.2,0.1,0.1-2.4-0.3-3.7
		c-0.7-2.7-0.2-5.9-1-8.6c-0.5-1.6-1.6-2.1-1-3.7c1.5-4.3-1.3-5.2-2.5-3.2c-0.9,1.4,0,2.2-0.6,3.1
		C438.6,138.5,435.7,139.6,435.8,139.8z"/>
	<path class="st0" d="M361.8,182.6"/>
	<path class="st2" d="M229.2,152.5"/>
	<path class="st3" d="M453.9,431.1c8.7-6.5,14.2-14.4,14.2-24.4c0-56.6-147.2-37.2-166.2-62.2c-3-3-4-7-6-10c-2-5-1-10-1-15
		c1-6,4-12,8-17c23-23,55-25,85-32c16-4,32-12,40-27c4-9,6-19,3-29c-4-19-23-26-38-37c-23-18-17-46-18-71c0-1-1-2-2-2
		c-18-1-37,3-52-9c-28-11-62-16-90,1c-3,2,0,4,1,6c0,0,1-1,0.8-0.7c-0.5,0.2-0.4,0.3-0.8,0.7c6.8,0.1,18,6.1,9.1,12.6
		c-3.9,2.8-8.8,4.4-13.1,6.7c-5.5,3-11,6.2-15.9,10.2c-4.5,3.6-9.6,8.3-12.1,13.7c-2.9,6.4,2.8,10.4,8,12.8
		c5.2,2.4,11.6,4.1,15.4,8.7c3.3,4,3.5,9.6-1,12.7c-5.4,3.7-12,5.4-17.5,9.2c-5.4,3.8-10.3,8.3-14.3,13.6
		c-7.3,9.6-12.2,22.1-9.2,34.3c3.1,12.5,14.3,19.7,26.3,22.4c5.6,1.3,11.8,1.7,17.4,0.3c5.7-1.5,5.5-4.4,4.4-9.4
		c-0.9-4.2-0.3-7,4.3-7.7c4-0.6,8.3,0.2,12.3,0.9c4.8,0.9,9.9,1.7,14.2,4.3c2.4,1.4,4,3.3,5.2,5.8c0.7,1.4,1.2,2.9,2,4.2
		c0.8,1.2,1.9,1.8,2.6,3c1,1.8,2.9,5.1,0.9,6.7c2.8,2.8,7.6-0.4,10,3c0.1-0.8,0.5-1.5,1-2c-5.5-3.2-7.1-10-10.8-14.8
		c-1.6-2.1-4.1-4.5-6.8-2.5c-1.8,1.3-3.6,5.4-4.2,7.5c-0.8,2.9,1.3,4.3,2.1,6.8c0.4,1.2,0.6,4.7,2.5,4.6c2.4-0.2,1.4-4.7,1.2-5.9
		c-0.6-3-0.8-5.2,0.7-8c1.1-2.2,4.9-5.9,3.8-8.6c-1.2-3-6.1-2.1-8.5-3c-5.2-2-4-8.4-4.7-12.8c-0.5-3.4-1.6-7-3.8-9.8
		c-2-2.4-5.1-4-6.1-7.1c-0.8-2.4,0.3-6.3,3.2-3.8c1.7,1.4,1.9,4.4,1,6.4c-2,4.1-7.9,4.1-10,8.1c-3,5.6,4.9,9.9,9.5,10
		c-1-2.3-6.3-5.7-4.3-8.1c2.9-3.4,2.4,4.8,1.3,6.4c-1.6,2.5-4.8,5.2-3.6,8.6c1,2.6,4.3,4.1,6.5,5.3c2.4,1.2,6.4,2.4,6.2,5.6
		c-0.2,3.2-3.6,5.7-3.3,9.2c0.3,4.1,5.4,5,8.7,5.7c5.1,1,10.4,1.5,15.6,2.1c21.4,2.7,42.9,5.6,64.2,9.1c21.3,3.5,43,6.9,63.9,12.5
		c11.6,3.1,23,7,34.8,9.3c5.4,1.1,10.8,1.9,16.2,2.9c5.2,1,10.4,1.1,14.7-2.6c-0.4,0.1-0.6,0.1-0.9,0.2c0.2,0,0.6-0.1,0.9-0.2
		c-7.3,0.1-7.4-7.2-6.6-12.7c0.4-2.8,1.2-5.6,1.7-8.4c0.9-5,0.3-10.3,1.6-15.2c0.4-1.4,1.2-5.5,3-5.5c2.2,0,0,2.7-0.8-0.3
		c4.4,0.7,9.6,0.9,13.4,3.3c5.2,3.2,2.5,8,0.4,12.4c-1.6,3.4-1.4,5.3,1.5,7.6c1.5,1.2,4,2.9,1.6,4.5c-3.1,2.1-10.1-0.9-10-4.7
		c0.1-4,6.2-10.8,0-13.2c-3-1.2-10.5,1.1-11.5-3.3c-0.6-2.3,1.5-5.5,2.3-7.6c1.5-3.6,2.6-7.4,3.4-11.2c0.6-2.9,1.9-6.8,0.3-9.6
		c-1.1-1.9-6-3.8-5.6,0.1c0.6,5,11.7,1.6,12.7-2.1c0.8-2.8-0.4-5.2,2-7.4c3.3-3,7.2-4.6,10-8.4c-2.2-0.4-1.1,2,0,0
		c-3.2-2.8-5.4,5-9.6,2.5c2.4-2.5,2,0.5,0,0c1,0,1-1,2-1c0-1-1-2-1-2c-5-1-5,7-6,11c-1,2-2,3-5,2c-1-2-3-3-5-5s-4-6-6-8
		c-1-2-2-5-1-7c1-3,6-5,8-2c1,2,1,5,0,7c-6,9-21,12-19,25c1,3,3,6,6,8c1,1,2,0,3,1c0,1,1,1,1,2c1,1,3,2,4,0c1-3-2-5-3-7
		c-3-2-7-7-4-11c1-1,2,0,3,1c6,8,0,17-4,25c9,12,4,27,4,40c0,5,3,7,8,8s9-3,14.4-0.1c-0.6-0.1-1.2-0.1-1.7-0.3
		c0.6,0.1,1.1,0.2,1.7,0.3c-7.4-4.9-6.4-13.9-6.4-21.9c5-4,14-4,18,1c0,1,0,1-0.2,2.5c0.1-0.4,0.2-0.7,0.2-1.1
		c-0.1,0.4-0.2,0.7-0.2,1.1c4.2-1.2,3.4,6.1,3.1,8.3c-0.5,4.4-2.1,10.3-7.6,10.2c0.9,0,1.9-0.1,2.8-0.3c-0.9-0.1-1.9,0-2.8,0.3
		c4.7-1,8.7-1,13.7,0c6,0,14-4,12-12c-3-13-3-26,3-37c-2-8-10-15-6-24c1-1,3-2,5-1c2,2,1,6,0,8c-2,3-8,5-7,10c0,1,2,2,3,1
		c2-2,5-4,7-6c6-6,5-15-2-19c-3-2-5-4-7-6s-3-4-3-6s-1-5,1-7c1-1,2-1,3-1c5,1,5,6,2,9c-8,6-13,13-14,22c0,17,6,32,8,49c0,3,1,6-1,9
		c-2,1-5,2-6,4c0,1,1,2,1,2c4,2,8,1,12,1c4,0,9-2,13-3s8,2,11-1c0-1,0-2,0-3c-1,1-1,2-1,3l1,1c0.9-9.5-1.1-0.4,0,0c1-11,5-22,0-32
		c-3-8-13-2-20-2c-2,0-4-1-5-2c-1-1-1-3-1-4s1-2,2-2c16-1,33,1,49-1c-6,0,0,1-0.4,0.6c-0.9-4.6-1.7-0.3,0,0
		c-1.6-5.6-1.6-16.6-10.6-15.6c-1,0-1,2-1,4c2,7,11,12,18.4,8.7c0,0.8-0.1,1.5-0.2,2.3c2.7-0.1,7.9,1.6,3.9,4.8
		c-2.3,1.9-7.4,1.2-10.1,1.1c-7.1-0.3-13.7,0.3-17.1,7.4c-2.8,5.9-1.8,12.8-1.3,19.1c0.2,2.7-0.2,6.2,0.9,8.7
		c1.5,3.2,6.2,1.5,9.2,1.4c8.4-0.3,16.9-0.3,25.3,0.4c7.1,0.6,14,2,21,2.6c7.9,0.7,19.5,0.8,24.3-6.9c2.6-4.2,2.6-10.7-0.2-14.7
		c-1.8-2.6-4.9-4.8-8-5.6c-3-0.8-5.7-0.2-8.6-1.5c-9.9-4.7-10.2-16.1-10.5-25.6c-0.2-5.7-0.7-11.1-2.2-16.6c-0.8-3-2.3-6.2-5.8-6.7
		c-3.2-0.5-5.5,3.2-5.4,6.1c0.1,8.3,12.8,4.2,17.7,3.7c6.2-0.6,11.6,2.6,14,8.4c2,4.8,1.6,10.5-0.4,15.3c-2.8,6.8-8.8,9.1-15.1,11.6
		c-4.9,1.9-11.4,3.7-15.9-0.4c-2.4-2.2-2.7-6.1-3.6-9c-1.1-3.8-2.4-7.7-2.5-11.7c-0.1-3.6,0.7-8,3.5-10.6c1.8-1.8,7.2-2.5,6.9,1.4
		c-0.1,2-2.5,2.9-3.8,4.1c-1.8,1.7-1.7,3.1-1.4,5.4c0.5,4.4,1.9,9.7,5.6,12.5c4.4,3.3,12.1,1.5,13.8-3.9c1.8-5.3-7.5-14.8,0.1-18.2
		c6.1-2.7,10.9,3.8,13.1,8.5c5.9,12.2,1.2,26.4-12.8,29.3c-5.8,1.2-11.8,0.6-17.7,0.2c-5.5-0.4-11.7-2-14.2,4.2
		c-2.7,6.7,0.1,12.6,0.3,19.4c0.1,2.8-0.3,6.7-3.1,8.2c-1.9,1-4.6,0.2-6.4,1.4c-1.9,1.2-1.2,3.1,0.4,4.3c2.2,1.7,4.9,0.8,7.5,0.4
		c5.2-0.9,10.1-2.8,10.1-8.9c0-4.9-2.4-9.6-1.9-14.4c0.4-5.1,5.3-6.4,9.8-6.3c4.6,0.1,9.3,1.7,13.9,0.9c4.7-0.8,8.6-6.7,4.3-10.3
		c-10.1-8.4-26.6-17.4-37.3-5.1c-1.8,2.1-3.7,5.4-6.3,6.5c-2.8,1.2-4.7-0.7-6.4-2.7c-1.1,1.2-2.5-0.9-3.7-0.1
		c-2.9,2,2.8,9.4,4.5,10.4c7.6,4.2,12.7-6.4,16.8-10.8c3.7-3.9,8.1-2.1,11.8,0.6c4.4,3.2,9.1,5.9,14.4,7.2c10,2.4,20.2-2.5,28.1-8.4
		c7.6-5.7,14.2-12.6,19.6-20.4c5.2-7.5,10.7-16.5,13-25.4c2.2-8.5,1.4-18-0.3-26.6c-1.4-6.9-3.6-17.6-10.2-21.4
		c-7.1-4.2-17.4-2.9-25.2-2.8c-12.3,0.3-24.5,1.1-36.7,2.2c-4.4,0.4-23.6-0.5-24.2,6.4c-0.3,3.8,6.6,6.5,8.5,9.2
		c5.1,7.4-9.2,6.7-12.8,6.6c-5.7-0.1-10.3,1.3-15.5,3.6c-4.9,2.2-10,4.1-15.3,2.6c-8.9-2.4-14.9-11.2-22.4-16
		c-6.2-4.1-15.4-8.5-22.4-3.6c-3.8,2.7-5.6,7.1-3.2,11.3c1.7,3,5.4,6.1,9.1,6.1c3.8,0,3.8-3.6,2.5-6.4c-1.4-2.8-4.2-4.7-7-5.8
		c-5.5-2.2-14.5-1.7-15.7,5.6c-0.7,3.8,1.5,8.5,5,10.2c4,2,7.6-1.7,4.5-5.3c-3.2-3.8-9.5-3.4-13.7-1.9c-1.6-9.2-6.4-17.7-14.2-22.9
		c-8.4-5.6-17.9-6.2-27.7-6.8c-21.4-1.2-43.4-1.6-63.6-9.3c-12.3-4.7-22.3-12.8-32.6-20.7c2,0.6,4,1.8,5.3,3.5
		c-2-0.7-3.7-2.2-5.3-3.5c6.7,2.1,13.8,5.5,20.9,5.4c5.6,0,1.7-7.2,7.4-7.1c0,1.7,0,3.3,0,5c5.2,0.3,3.6-5.7,3.5-8.9
		c1.2,0.1,2.4-0.2,3.3-1c-1.5-2.6-2.6,1.9,0,0c-3-2.8-4.9-7.3-9-8.8c-4.7-1.7-9.5,1.5-14.2,0.8c0.4-1.1,0.3-4.2-1.4-4.5
		c-0.6,0.5-0.6,0.5-1.6,0.5c0,1,0,4-1,4c-5,0-8,4-10.9,8.5c3.3,1.2,1.4-2.4,0,0c7.5,2.4,19.1,7,25.9,0.5c4-3.8,2.7-7.8,2.7-12.6
		c0-4.6,5-5.9,8.8-6.3c4.7-0.5,8-1.8,7.8-7.3c-0.1-4.6-1.8-8.6,3.2-11.2c3-1.6,7.4-0.6,10.2,1c3.9,2.2,2.5,9.1,2.5,12.9
		c-0.1,6.1-0.5,12.2,0.4,18.2c0.3,1.9,1.1,3.5,3.5,3.2c1.7-0.2,2.1-1.5,2.2-3.1c-0.1,0.8,0,0.9,0.3,1.6c0.4-4.5-0.6-8.5,1.4-12.5
		c3-7,2-14,4-22c6,0,7,6,10,10c1,1,3,1,4,1c0,5.3,0,10.7,0,16c3.7-0.9,6.9,1.8,8.6-2.9c1.8-4.9,1.5-10.4,3.3-15.4
		c2.6,1.7-1.3,0.9-0.3,0.6c7.4,1.6,5.4,9.6,6.4,15.6c1,2,5,2,6,0c2-4,0-8,1-12c2-4,8-6,12-3c5,4,4,10,6,15c0,0,2,0,3,0
		c-0.1,1.9-1.1,0.6-1.4,0.8c2.4,3.2,1.4,7.2,3.4,10.2c4,6,9,13,7.4,20.9c-0.4-0.3-0.7-0.5-0.9-0.8c0.4,0.2,0.6,0.5,0.9,0.8
		c-5.4-1.9-11.4,0.1-13.4-2.9c-6-7,0-16,7-21c3-3,1-6,1-10c0-2,2-3,3-4c4-3,8,2,9,5c1,8-4,19,5,24c1,1,1,2,2,3c12,7,24,4,37.2,4.3
		c-12.6,0-25.5,1.3-37,6.8c11.1,4.9,23,12.4,26.9,24.6c-20.2-21.7-52.2-22.7-80.2-22.7c-4,0-8-2-12.4-2.8c0.7-0.3,1.5-0.2,2.2,0.2
		c-0.7,0.1-1.5,0-2.2-0.2c1.3-1.4,5.1-8.1,7.6-6.6c1.3,0.8-0.3,7.1,2.2,6.4c1.6-0.5,0.9-5.5,0.8-6.6c-0.6-3.9-4.2-8.8-2-12.7
		c0.6,0.8,2.1,3,3.3,2.5c0.5-6.2-6.5-10.2-2.5-16.2l2,1c0,2-2,3-5,4c-3,2-2,7-2,10c2.4-0.2,2.9-3.1,1.2-4.6
		c-0.2,0.5-0.6,0.9-0.6,1.4c0.2-0.5,0.4-0.9,0.6-1.4c-2.9,7.7-0.1,15.9-7.9,21.5c-2.2,1.6-6.7,2.5-9.4,1.4c-2.3-0.9-2.7-3.1-3.4-5.2
		c-1.3-3.8-4-9.7-9.2-7.3c-2.2,1-3.4,3.8-4.3,5.8c-3.6,8-5.6,16.7-8.6,25c-2.6,7.2-5.8,16.6-12.7,20.9c-3.5,2.2-7.3,2.1-11,0.6
		c-8.4-3.4-16.3-5.8-25.4-6.3c-9-2-21.1,1.3-30.3-2.5c-1.5-0.8-2.3-3.1-3.1-4.6c-1.5-4.6,3.1-6.9,5.4-10.8c0-0.8,0-1.5,0-2.3
		c-0.8,0-1.5,0-2.3,0c0,0-0.8,0.8-0.8,1.5c0,2.3,1.5,3.8,1.5,6.2c1.5,5.4,7.7,0.8,10.8,0c0,0,0.8-0.8,0.8-1.5
		c-0.8,0-2.3-0.8-3.1-0.8c-1.5,0-2.3,0.8-3.8,1.5c0,0-0.8,0.8-0.8,1.5c0.8,3.8,4.6,0.8,6.9,1.5c0.8,0,1.5,0.8,1.5,0.8
		c1.5,3.1,0.8,7.7,4.6,9.2c-1.5,0.8-3.1,1.5-4.6,0c-2.3-2.3-1.5-7.7-5.4-6.2c-0.8,0-3.1,1.5-3.8,2.3c-4.6,3.8-10.8,1.5-15.4-0.8
		c-2.3-0.8-3.1-3.8-3.8-5.4c-2.3-6.9-0.8-13.9-0.8-20.8c0.8-6.9,3.8-13.1,6.9-19.2c3.1-4.6,6.9-6.9,10.8-10.8
		c4.6-5.4,3.8-13.1,0.8-19.2c-0.8-0.8-1.5-0.8-2.3-0.8c-5.4,2.3-10,6.9-10,13.1c0.8,10-2.3,18.5-6.2,26.9c-0.8,0.8-2.3,2.3-3.1,2.3
		c-7.7-4.6-10-14.6-12.3-23.1c-0.8-2.3-2.3-5.4-4.6-6.9c-3.1-2.3-6.2-3.1-8.5,0.8c-0.8,1.5-1.5,3.1-1.5,4.6c0,3.1,3.1,4.6,6.2,6.2
		c4.6,4.6,9.2,10,16.2,8.5c3.1-0.8,6.9-0.8,10-0.8c3.1,0.8,5.4,2.3,8.5,2.3c6.9-0.8,13.1-7.7,12.3-15.4c-0.8-4.6-4.6-8.5-7.7-11.5
		c-4.6-5.4-3.1-12.3-4.6-19.2c-0.8-3.1-4.6-6.9-8.5-4.6c-0.8,7.7-6.9,10.8-12.3,15.4c-0.8,0.8-0.8,2.3-0.8,3.8
		c1.5,3.8,4.6,13.1,10.8,10c0.8-0.8,1.5-2.3-0.8-3.8c-8.5-4.6-19.2-4.6-25.4-12.3c-0.8-1.5-0.8-2.3-0.8-3.8c0.8-3.1,1.5-6.2,4.6-7.7
		c2.3-0.8,4.6-2.3,6.9-1.5c3.1,0.8,4.6,4.6,3.8,7.7c-1.5,4.6-4.6,8.5-3.8,13.1c0.8,2.3,1.5,3.8,2.3,6.2c1.5,5.4-3.8,9.2-5.4,13.9
		c-0.8,3.1,0,6.2,1.5,8.5c5.4,5.4,11.5,10.8,12.3,19.2c0,6.2,2.1,13.5,0,19.2c-2.8,7.8-21.9,1.2-26.2-2.5c-8.9-7.6-56-6-77,11
		c-31.2,32.9-158.1,7.1-173.8,2.9"/>
</g>
<g class="st4">
	<path class="st5" d="M277.7,337"/>
	<path class="st6" d="M322.9,293.3"/>
	<path class="st7" d="M318.1,226.1l-18.4,2.6c-21.5,3.2-38.8,2-66.5,2l-0.5-0.1c-0.2-3.3-4.1-2.3-6.2-2.3c-1.7,0.1,1.7-5.9,2.5-8.2
		c0.4-1.1,5-4.9,5.9-6.3c1.9-2.8,0.7-17.1-0.9-22.1c-0.8-2.6-4-2.4-3.1,0.8c0.3,1.1,1,2.2,1.5,3.1c1.8,2.6,3.7,3.9,5.4,7
		c2.9,5.1,6.2,20.3,6.5,20.8c0.2,0.4,2.1-0.7,2.4-0.3c0.9,1.6,1.6,3.8,3,3.7c1.1-0.1,3.8-1.3,4.8-1.9c0.8-0.5,3.1-1.4,3.3-2.5
		c0.2-1-0.4-2.1-1.3-2.1c-1.6-0.1-4.1,1.4-4.5,1.5c-2,0.2-2.7-2.3-3.2-4c-1-3.2-2.3-11-3.6-15.2c-0.6-2.2-4.4-10.2-4.7-12.7
		c-0.3-2,1.5-4.6,2.2-6.4c1.1-2.7,2.4-5.6,3.3-8.5c0.8-2.8,0.8-5.5-1-8c-1.7-2.3-3.2-4.9-2.5-7.9c0.4-1.6,2-7.6,4.9-5.5
		c2.4,1.7-1.3,6.8-3.5,7.9c-2.9,1.4-5.8,1.7-8.2,4.1c-2.6,2.6-5.1,7.5-5.9,11.1c-0.8,3.7,0.2,4.8,1.3,5c2.6,0.4,6.9,2.7,13.1,5.1
		c1.3,0.5,5.1,2.9,6.1,1c0.7-1.5-2.1-3-3.2-3.6c-2.1-1.1-4-2.3-5.7-4.3c-1.7-2-0.7-3.6-0.1-5.9c0.3-1.3,0.1-4.5-1.5-4.9
		c-2.7-0.8-4.2,2.9-4.8,4.3c-1.2,3.1-1.3,6.7-3,9.5c-0.8,1.3-1.8,2.3-2.6,3.6c0,0,0,0,0,0c-5.2,6.6,0.4,22.6-1.2,25.1
		c-0.8,1.3-4.3,5.7-5.2,8.5c-0.4,1.4-2,4.5-3.3,7c0,0,1.5,1,1.3,1.3c-0.6,1-0.3,2.2-0.4,2.2"/>
	<path class="st5" d="M245.4,220.9"/>
	<path class="st5" d="M333.6,332.1"/>
	<path class="st8" d="M262,124.8c4.6,1.7,9.1,3.7,13.5,5.8c7.4,3.6,25,15.4,23.8,22.4c-0.7,4-4.7,2.2-7,1c-7-3.6-13.8-8.8-20.9-12.4
		c-4-2-7.2-3.8-11-4.6c-5.2-1-2.6,2.9-0.7,4.4c4.7,3.6,9.4,7.3,14.2,10.8c5.2,3.8,10.3,8.8,13.4,14.4c1.6,3,4.8,7.7,3.8,11.2
		c-1.3,5-5.7,4.7-9.4,2.4c-2.8-1.8-5.6-3.6-8.5-5.3c-3.9-2.3-7.9-5.4-12.7-5.5c-3.9-0.1-8.9,0.9-8.7,5.4c0.2,4.5,4.5,7,10.5,11.2
		c2.7,1.9,4.6,5.1,5.1,8.3c0.5,3.4-0.7,6.8-2.6,8.9c-3.7,4-8.2,2.5-11-1c-2.7-3.5-7.3-12.7-6-15.5c1.2-2.5,7.3-0.3,9.4,0.4
		c22.6,7.5,41,12.3,55.1,15.4c17.8,4,41,7.1,44,8.2c5,1.7,2.4,5.6,2.4,5.6c-2.1-3.8-3.5-8.9-2.6-14.2c3.5-22.7-3-39.4-16-54.4
		c-10.9-12.6-25.1-28-51.6-31C273.2,115.2,256.4,122.8,262,124.8z"/>
	<path class="st6" d="M175.6,156.8"/>
	<path class="st5" d="M455.1,273.5"/>
	<path class="st9" d="M409.4,212c-0.6-4.5,0.5-7.1,3.4-8.6c2.4-1.3,4.5-0.1,6.6,2.5c2.3,2.9,3.7,8.5,3.8,10.6
		c0.1,1.4-1.2,2.6-2.1,1.9c-1.1-0.9-1.2-2.6-0.7-6.1c0.6-4.5,1.7-11.7,0.5-17.2c-0.6-3.1-3.1-5.4-6.4-6c6.6-3.8,12.4-6.4,18.2-11.4
		c4.2-3.8,8-11.5,13.6-13.2c-1.7,3.5-2.6,7-2.5,11c-0.1,0.1-0.1,0.1,0,0c4.9-4.6,9.2-9.2,16-11.1c5.7-1.6,11.3-1.6,17.3-1.6
		c-1.7,0.9-5.3,7.3-9.2,10.1c-2.3,1.7-5.5,1.4-6.2-0.2c7.6-5.1,15.6-6.3,24.8-5.5c8,0.7,15.7,3.2,23.3,5.2c-4.9,0-9,0.8-13.5,2
		c-2.7,0.7-11.2,3.2-12.3-0.6c3.4-2.4,10,0.1,12.9,2.7c4.8,4.2,11,12.7,11.7,17c0.6,3.4,3,4,3.6,6.5c0.7,2.8-1.1,4.3-3.7,4.9
		c-3.9,0.8-14.6-4.2-17.9-1.2c-1.8,1.7-1.7,4.9-0.9,9.6c0.4,2.1,0.8,3.9,1.7,5.8c1.1,2.4,3.1,3.6,4,6.9c0.8,2.7-1.1,5.7-5,6.5
		c-2.1,0.4-5.7,0.2-8-0.7c-1.2-0.5-3.1-1.7-5.1-0.7c-3,1.5-9,0.7-10.9-0.9c-2.5-2.1-3.9-5.3-3.4-7.4c0.5-2.2,2.5-5,4.8-3.9
		c1.5,0.7,0.4,3.5-2.1,5.9c0,0-4.8,2.4-7.5,6.9l-2.7,4.1c3.5,2.7,9.1,3,13.4,2.8c3-0.2,3.9-0.8,6.6,0.7c2.2,1.2,3,2.9,5.8,3.2
		c3.3,0.4,13-2.8,8.5,4.6c-3.1,5-12.5,4.1-17.2,3.4c-4.1-0.6-13.2-3.7-14.9-8c6.9,1.2,14,2.7,20.8,5.2c4,1.5,14,6.1,7.7,9.9
		c-8.6,5.1-24-3-30.3-8.9c-1.9-1.8-5-7.2-5.1-9.3c0,0-3.8,3.1-8.9,3.8c-2.3,0.3-4.8,0.3-7.3-1.3c-3.2-2-6.5-5-9.6,1.4
		c-1.3,2.7-6.1,3.2-4.9-5.3c0.6-4.1-1.6-8.2-3.6-10.6C412.7,222.9,410.1,216.6,409.4,212"/>
	<path class="st10" d="M507.5,216.5"/>
	<g class="st11">
		<path class="st1" d="M259,288.9c-8.1-10.4-13.8-21.2-13.8-21.2c1.6-3.4,4.2-7.9,3.8-13.2c-0.2-3.4-1.5-7.3-3-10.3
			c-0.8-1.7-2.8-5-4.4-5.8c-0.1,2.3-0.7,4.1-1.4,6.3c-1,3.1-1.4,8.1-1.2,11.3c0.6,7,3.4,13.5,6.7,19.7c2.6,4.8,10.4,23,12.7,26.7
			c2,3.3,5,6.6,8.7,8.2c6.5,2.7,14.1,2.1,14.1,2.1c-21.6,3.2-36.4,35.3-36.4,35.3c7.2-38.5,31.3-54.1,48.2-63.9
			c14.1-8.1,17.5-23.3,17.5-38.6c0-9.6,0-19.2,0.4-23.2c0.2-2.3-0.9-9.8-1.7-11.6c2-2.1,8.7-0.9,10.9,0.4c-1.7,3.5-8.3,2.6-9.5-0.6
			c-0.7-2,0.2-8.3,0.1-10.3c-0.1-2.1-0.8-3.1-1.6-5c-0.9-2.3-1.6-3.9-2.9-6.2c-1.9-3.3-1-4,2.4-4.3c4.5-0.5,9.4-0.3,13.9,0.2
			c-1.2,4.3-10.9,1.8-13.4,1.5c0,0-5.1-10.4-7.3-15.5c-2.8-6.7-2-11,0.4-17.4c2,0.5,3.9,2.6,6.1,3.2c2.3,0.6,4.9,1.1,7.8,0.9
			c3.1-0.2,12.5-0.1,11.6-4.6c-0.4-1.9-2.8-3.8-3.6-5.6c-1-1.9-1.4-4.4-2.9-6.2c-1.5-1.8-4.1-2.3-5.6-3.2c-1.2-0.8-0.4-1.7-2.2-1.9
			c-0.7-0.1-2.5,0.8-3,1.4c-2.7,4,7,6.9,9.6,5.8c-5.3-2.7-13.6-3.1-15.5,3.9c-2.2,7.7,12.3,8,16.9,5.8c-2.5-2.7-12.3-2.1-15.2-0.1
			c-6.3,4.6-1.6,14.6,0.9,19.7c1.7,3.5,4.2,12.9,9.3,9.1c5.6-4.1,3.9-17.3,2.3-22.8c-0.4-1.3-1.7-3.8,0.4-3.7
			c0.7,3.7,2.7,8,4.1,11.2c1.1-3.1-1-8.3,0.7-10.9c2.1-3.2,4.7,1.5,4.7,4.1c0,7-2.8,14.5-6.2,20.2c-1.1,1.9-2.4,4.3-3.3,6.3
			c-1.4,3.1-0.6,3.3,1.6,5.1c2.7,2.1,1.6,1.7-0.4,4.1c-1.6,2-1.6,3.5-1.8,6.3c-0.2,3.6-0.6,14.8-0.6,18.4c0,5.9,0.9,7.5,1.2,13.4
			c0.6,12.9-0.1,25.9,0.6,38.9c0.7,13-0.3,25.6,2.9,40.2c0,0,1.4,2.7,1.6,3.5c0.2,0.8,0,1.7-0.6,3c-1.4,3.3-1.4,2.9,1.5,5.6
			c1.7,1.6,5.1,4.1,6.1,6.2c0,0.1,1.7,6.3-6.2,5.6c-4.8-0.4-20.7,1.2-25.1-1.1c-10.2-5.2,6.6-11.1,5.7-15.8
			c-0.3-1.6-2.6-2.4-3.1-4.1c-0.6-2,1.7-4.2,3-4.9c3.2-1.7,8.1-1.7,17.4,0.3c8.8,2.4,1.2,5.2-7.1,5.6c-4,0-13.6,1.4-19.7,2.6
			c-30.8,6.2-29.2,22.5-6.1,27.9c13.9,3.2,57.7-1.2,93.3,2c16.4,1.5,17.8,7-0.3,7.8c-17.8,0.9-42.2-4-74.3-0.3
			c-38.6,4.5-53.7,12.3-80.3,13.2c-13.1,0.4-25.8-2.5-35-11.7c-8.1-8.1-5-23.3,8.3-35c20.9-18.3,48.4-28.6,45.2-35.4
			c-5.3-11.4-12.2-19.3-15.9-28.9c-2.3-5.9-2.9-18.9-2.2-21.2c-3.4,5.1-3.1,13.8-4,16.8c-0.6,0.1-3.9-5-8-8.2
			c-4.8-3.8-10.6-5.9-12.6-6.5c-3.7-1.2-7.1-1.9-10.8-2.7c2.3,0,12.3,6.8,14.8,8.4c3.4,2.3,6.9,5.5,8.9,9
			c-9.3-2.4-27.1-2.9-29.1-2.2c3.3-0.1,19.4,3.5,23.9,4.8c3.5,1,6.8,3.8,10,5.4c1.7,0.8,4.3,1.6,6.3,0.9c1.5-0.5,1.6-1.5,1.1-2.6
			c-0.7-1.3-2.4-2.7-3.7-3.4c-1.6-0.8-3-0.8-2.6,1.1c0.5,2.4,3.5,4.1,6.2,7.2c3.3,3.7,8.1,11.9,8.1,11.9c-5.3-3.3-11.9-4-16.2-4.9
			c-5.7-1.1-9.7-4.1-14.7-6.7c2.9,1.4,4.9,7.7,6.5,10.4c3.2,5.3,7.8,10.1,12.8,13.6c4.7,3.2,10.6,5.5,16.4,6.2
			c2.5,0.3,5.2,0.2,6.9-0.9c4.1-2.5,3.4-10,3.5-14.2c0.1-3.9,0.1-7.8,1.3-11.5c1.5-4.7,4.7-9.1,8.8-11.7c6.5-4.2,12.1-3.6,17.3-7.3
			c-3.2,5.5-3.4,12.4-7,17.6c-5.7,8.2-13.8,6.5-13.8,6.5l-2.5-0.6C256,277.8,259,288.9,259,288.9z"/>
	</g>
	<path class="st6" d="M189.6,268.3"/>
	<path class="st7" d="M318.1,226.1c14.4-1.8,29.4-0.8,43.4-1.8c0-1,0-3-1-4c-1,0-1-1-2-1c-4-1-7,1-10,1c-2,1-2,4-5,4c1-4,0-8-5-10
		c-1-1,1-2,2-2c5,2,11,1,16,1c3-1,5-4,8-5c1,0,3,1,3,3c-1,2-1,5-3,5s-1-4-1-5c3-2,8-2,12,0c-5,3-13,5-11.8,13.5c4.2,0.1,0.1-1.8,0,0
		c4.2,0.1,10.7,0.5,14-2.9c3.1-3.2,0.7-8.3,0.5-12c-0.3-7,5.9-1.7,4.6,2.3c-1.6,5.1-6-5.9-6.5-7.4c-1.7-4.8-3.6-9.5-5.6-14.2
		c-1.4-3.3-3.4-6.9-4-10.5c-1.1-5.6,4.7-12,10.1-13c6.4-1.1,8.7,6.4,5.3,10.8c-3.8,4.9-10.4,7.9-16,10.2c-4.1,1.6-10.4,4.7-14.7,2.1
		c-5.7-3.4-5.2-12.7-2.7-17.8c1.9-3.8,5.5-6.8,9.5-8.3c2.9-1.1,6.5-0.9,9.2-2.4c4-2.1,4.4-7.1,6.5-10.6c2.3-4,6.1-7.6,10.7-8.4
		c10.9-1.7,8.1,12,3.4,17.1c-3.1,3.5-7.4,4.3-9.6,8.8c-1.5,3-2.3,6.3-5.5,8.1c-2.6,1.4-7.5,2.7-10.2,1c-3.7-2.3-3.6-8-2.6-11.6
		c1.3-4.3,2.5-8.7,3.8-13c1.3-4.2,3.7-8.2,7.8-10.1c3.9-1.8,8.7,0.3,12.5,1.7c3.9,1.5,7.7,3.7,10.1,7.2c5.9,8.6,0,18.2-5.6,25.1
		c-3,3.8-7.5,5.1-10.7,8.5c-2.7,2.8-3.6,9.5-0.9,12.7c2.9,3.5,7.1-1.9,7.9-4.6c1.4-4.8-1.8-9.3-3.2-13.7c-1-3.2-1.7-8.3,1.8-10.2
		c3.8-2.1,8.2,2.2,8.4,5.9c0.2,4-4.1,6.2-4.6,9.9c-0.8,6.5,5.1,0.1,6.2-2.3c1.8-3.8,2-8.3,2.3-12.5c3.4,7.9-0.3,31.7-12.2,30.9
		c1.6-2.3,2.6-5.3,5.6-7.3c3-1,5-3,8-3c1,0,3,2,2,4c-2,6-8,7-13,9c0,6-1,12,1,17s10,3,16,4c6,2,12,0,18,1c7,2,15-1,20,5c1,1,0,3-1,3
		c-29,3-59,0-85,16c-2,1-3,2-4,4c-1,2-2,3-1,5c6,11,20,12,31,11c13-2,24-9,35-16c11-6,25-4,31,7c7,14,25,22,39,15c3-5,4-11,5-17
		c1-2,2-4,3-6c9-12,24-28,11-42c-1-1-2-1-3-1s-1,1-2,1c0,1-1,1-1,2s1,1,2,2c1,0,3,1,2-2c-6-19-29-14-46-16c-2,0-4,1-5,2
		c-2,3,2,3,4,4c0-1,0-2,0-3c-5-6-12-5-17,0l-1-1c3-8,12-12,20-9c1,1,2,2,3,2c5,1,9,3,14,2l1-2c-17-11-44-8-50,13c1,12-4,24,1,35
		c6,13-2,29-14,35c-2,1-5,2-7,3c-17,6-34,4-52,7c-8,2-18,2-21,12c9,13,28,9,42,11c13,2,27,2,40,4c7,0,212.3-24,133.7-138.3
		c-24.4-35.4,95.2-57.5,89.7-79.7c-5.5-22.2-86.5-13.3-158-10.7c-71.5,2.7-135.3,8.7-132.4-21.2c3.2-32.3,74.5-39.1,105.5-62.4"/>
	<path class="st12" d="M196.4,182.3c13,2,11,16,11.4,26.3c1.2-3.1,2.5-6.2,3.7-9.2c1.6,5.3-0.1,11.8-0.9,17.1
		c-0.6,3.8-2.6,11.6,1,14.6c2.2,1.9,5.7,0.5,8-0.5"/>
	<path class="st7" d="M186.9,157.5c1.7-1.2,3.1-3.4,5-4.3c0.6-0.3,1.5-1.1,1.3-2.2c-0.1-1.1,0.2-2-1.8-2.3c-3,3.7-7.8,2.4-11.4,0.5
		c-6.6-3.5-12.3-8.3-19.7-8.4c-0.6,0.3-1.9,0.9-2.1,1.3c0.1,1.1,0.7,2.4,1.6,2.7c3.1,1.7,7.2,2.1,9.9,4.8c3.5,3.4,6.5,6.7,10.2,9.6
		c0.5,0.2,1.4,0.5,1.6,0.1c0.9-3.9-2.4-7.8-5.8-10.1c-1.9-0.7-4-2-6.2-1.8c0,0-0.6,0.3-1,0.7c0.3,0.1,0.5,0.2,0.8,0.1
		c-0.3-0.1-0.4-0.2-0.8-0.1c1.8,0.3,3.7,1.9,5.5,1.5c-0.7-2.4-3.8-1.4-5.5-1.5c2.2,0.9,1.2-0.8,0,0c11.5,5.1,44.9,11.3,38.1,18.2
		c-4.9,5-33.2,10-10.2,15.8"/>
</g>
</svg>
